<svg width="16" height="16" viewBox="0 0 16 16" fill="none" xmlns="http://www.w3.org/2000/svg">
<path d="M1.77778 0.888889C1.77778 0.653141 1.68413 0.427048 1.51743 0.260349C1.35073 0.0936505 1.12464 0 0.888889 0C0.653141 0 0.427048 0.0936505 0.260349 0.260349C0.0936505 0.427048 0 0.653141 0 0.888889V12.8889C0 13.714 0.327777 14.5053 0.911224 15.0888C1.49467 15.6722 2.28599 16 3.11111 16H15.1111C15.3469 16 15.573 15.9064 15.7397 15.7397C15.9064 15.573 16 15.3469 16 15.1111C16 14.8754 15.9064 14.6493 15.7397 14.4826C15.573 14.3159 15.3469 14.2222 15.1111 14.2222H3.11111C2.75749 14.2222 2.41835 14.0817 2.1683 13.8317C1.91825 13.5816 1.77778 13.2425 1.77778 12.8889V0.888889ZM10.6667 2.66667C10.4309 2.66667 10.2048 2.76032 10.0381 2.92702C9.87143 3.09372 9.77778 3.31981 9.77778 3.55556C9.77778 3.7913 9.87143 4.0174 10.0381 4.18409C10.2048 4.35079 10.4309 4.44444 10.6667 4.44444H12.5209L9.11111 7.85422L7.51733 6.26044C7.35064 6.0938 7.12459 6.00019 6.88889 6.00019C6.65319 6.00019 6.42714 6.0938 6.26044 6.26044L3.37156 9.14933C3.28666 9.23133 3.21894 9.32942 3.17235 9.43786C3.12577 9.54631 3.10125 9.66295 3.10022 9.78098C3.0992 9.899 3.12169 10.0161 3.16638 10.1253C3.21107 10.2345 3.27708 10.3338 3.36054 10.4172C3.444 10.5007 3.54324 10.5667 3.65249 10.6114C3.76173 10.6561 3.87878 10.6786 3.9968 10.6776C4.11483 10.6765 4.23147 10.652 4.33991 10.6054C4.44836 10.5588 4.54645 10.4911 4.62844 10.4062L6.88889 8.14578L8.48267 9.73956C8.64936 9.9062 8.87541 9.99981 9.11111 9.99981C9.34681 9.99981 9.57286 9.9062 9.73956 9.73956L13.7787 5.70133L13.7778 7.55556C13.7778 7.7913 13.8714 8.0174 14.0381 8.18409C14.2048 8.35079 14.4309 8.44444 14.6667 8.44444C14.9024 8.44444 15.1285 8.35079 15.2952 8.18409C15.4619 8.0174 15.5556 7.7913 15.5556 7.55556L15.5573 3.55556C15.5573 3.31981 15.4637 3.09372 15.297 2.92702C15.1303 2.76032 14.9042 2.66667 14.6684 2.66667H10.6667Z" fill="#888888"/>
</svg>
