<svg width="28" height="28" viewBox="0 0 28 28" fill="none" xmlns="http://www.w3.org/2000/svg">
<path d="M13.9958 6.67753C10.1018 6.67753 6.95913 9.82023 6.95913 13.7143C6.95913 17.6083 10.1018 20.751 13.9958 20.751C17.8897 20.751 21.0324 17.6083 21.0324 13.7143C21.0324 9.82023 17.8897 6.67753 13.9958 6.67753ZM13.9958 18.2877C11.4775 18.2877 9.42247 16.2326 9.42247 13.7143C9.42247 11.196 11.4775 9.14091 13.9958 9.14091C16.514 9.14091 18.569 11.196 18.569 13.7143C18.569 16.2326 16.514 18.2877 13.9958 18.2877ZM21.3206 4.74937C20.4114 4.74937 19.6772 5.48358 19.6772 6.39277C19.6772 7.30195 20.4114 8.03616 21.3206 8.03616C22.2297 8.03616 22.9639 7.30538 22.9639 6.39277C22.9642 6.17688 22.9219 5.96306 22.8394 5.76355C22.7569 5.56404 22.6359 5.38276 22.4832 5.23011C22.3306 5.07745 22.1493 4.95641 21.9498 4.87392C21.7503 4.79142 21.5365 4.7491 21.3206 4.74937ZM27.7122 13.7143C27.7122 11.8204 27.7294 9.94374 27.623 8.05332C27.5166 5.85755 27.0157 3.9088 25.4101 2.30315C23.8011 0.69406 21.8558 0.196581 19.66 0.0902236C17.7662 -0.016134 15.8896 0.0010205 13.9992 0.0010205C12.1054 0.0010205 10.2287 -0.016134 8.33833 0.0902236C6.1426 0.196581 4.19389 0.697491 2.58826 2.30315C0.979204 3.91223 0.481734 5.85755 0.375378 8.05332C0.269023 9.94717 0.286177 11.8239 0.286177 13.7143C0.286177 15.6047 0.269023 17.4848 0.375378 19.3753C0.481734 21.571 0.982634 23.5198 2.58826 25.1254C4.19732 26.7345 6.1426 27.232 8.33833 27.3383C10.2321 27.4447 12.1088 27.4276 13.9992 27.4276C15.893 27.4276 17.7697 27.4447 19.66 27.3383C21.8558 27.232 23.8045 26.7311 25.4101 25.1254C27.0192 23.5163 27.5166 21.571 27.623 19.3753C27.7328 17.4848 27.7122 15.6081 27.7122 13.7143ZM24.6931 21.8043C24.4426 22.4287 24.1407 22.8953 23.657 23.3757C23.1732 23.8594 22.7101 24.1613 22.0856 24.4118C20.281 25.1289 15.9959 24.9676 13.9958 24.9676C11.9956 24.9676 7.70705 25.1289 5.90244 24.4152C5.27803 24.1648 4.81144 23.8629 4.33112 23.3791C3.84737 22.8953 3.54546 22.4322 3.29501 21.8078C2.5814 19.9997 2.74265 15.7145 2.74265 13.7143C2.74265 11.7141 2.5814 7.42547 3.29501 5.62082C3.54546 4.9964 3.84737 4.52979 4.33112 4.04947C4.81487 3.56915 5.27803 3.2638 5.90244 3.01334C7.70705 2.29972 11.9956 2.46097 13.9958 2.46097C15.9959 2.46097 20.2845 2.29972 22.0891 3.01334C22.7135 3.2638 23.1801 3.56571 23.6604 4.04947C24.1441 4.53323 24.4461 4.9964 24.6965 5.62082C25.4101 7.42547 25.2489 11.7141 25.2489 13.7143C25.2489 15.7145 25.4101 19.9997 24.6931 21.8043Z" fill="white"/>
</svg>
