<svg width="15" height="15" viewBox="0 0 15 15" fill="none" xmlns="http://www.w3.org/2000/svg">
<path d="M7.2695 0.605591C8.71523 0.605591 10.1017 1.17991 11.124 2.20219C12.1463 3.22448 12.7206 4.611 12.7206 6.05673C12.7206 8.3135 11.0005 10.6781 7.63291 13.2038C7.52806 13.2824 7.40055 13.3249 7.2695 13.3249C7.13844 13.3249 7.01093 13.2824 6.90609 13.2038C3.5385 10.6781 1.81836 8.3135 1.81836 6.05673C1.81836 4.611 2.39267 3.22448 3.41496 2.20219C4.43725 1.17991 5.82376 0.605591 7.2695 0.605591ZM7.2695 1.81695C6.14504 1.81695 5.06664 2.26364 4.27152 3.05876C3.47641 3.85387 3.02972 4.93227 3.02972 6.05673C3.02972 7.69813 4.31256 9.59149 6.93516 11.6932L7.2695 11.9573L7.60383 11.6932C10.2264 9.59149 11.5093 7.69813 11.5093 6.05673C11.5093 4.93227 11.0626 3.85387 10.2675 3.05876C9.47236 2.26364 8.39395 1.81695 7.2695 1.81695ZM7.2695 4.84536C7.59077 4.84536 7.89888 4.97299 8.12606 5.20016C8.35323 5.42734 8.48086 5.73545 8.48086 6.05673C8.48086 6.378 8.35323 6.68612 8.12606 6.91329C7.89888 7.14047 7.59077 7.26809 7.2695 7.26809C6.94822 7.26809 6.64011 7.14047 6.41293 6.91329C6.18576 6.68612 6.05813 6.378 6.05813 6.05673C6.05813 5.73545 6.18576 5.42734 6.41293 5.20016C6.64011 4.97299 6.94822 4.84536 7.2695 4.84536Z" fill="#9FA3A3"/>
</svg>
