<svg width="87" height="31" viewBox="0 0 87 31" fill="none" xmlns="http://www.w3.org/2000/svg">
<path d="M37.7828 9.40529C37.4554 9.40529 37.1514 9.50537 36.8995 9.67644C36.4828 9.95957 36.209 10.4373 36.209 10.9791C36.209 11.5209 36.4828 11.9987 36.8995 12.2818C37.1514 12.4529 37.4554 12.5529 37.7828 12.5529C38.652 12.5529 39.3566 11.8483 39.3566 10.9791C39.3566 10.1098 38.652 9.40529 37.7828 9.40529Z" fill="#FFCA02"/>
<path d="M12.2289 18.2178L10.113 17.7158C7.96137 17.2137 5.02066 16.4606 5.02066 14.4523C5.02066 12.8385 6.74207 11.8344 9.07306 11.8344C11.8344 11.8344 13.6275 13.3048 14.3449 14.9185L17.9668 13.7709C16.9269 10.9737 13.6275 8.82202 9.32411 8.82202C5.2001 8.82202 1.1118 10.902 1.1118 14.7034C1.1118 18.5765 5.41514 19.9751 7.81796 20.5488L10.1848 21.1226C12.2289 21.5889 14.6676 22.1626 14.6676 24.0633C14.6676 26.2151 11.7627 26.8964 9.96962 26.8964C7.42348 26.8964 4.76963 25.6054 3.58622 23.2384L0 24.3143C1.21931 27.6854 5.09238 29.9088 10.0055 29.9088C15.2055 29.9088 18.7557 27.3268 18.7557 23.6688C18.7557 19.724 14.4882 18.7199 12.2289 18.2178Z" fill="white"/>
<path d="M27.5788 3.62209H23.7417V9.39586H19.0078V12.6952H23.7417V23.1669C23.7417 25.3544 23.7417 29.9089 30.2326 29.9089C31.7747 29.9089 33.4244 29.622 34.6437 29.0482V25.713C33.3168 26.3227 31.99 26.6096 30.95 26.6096C27.5788 26.6096 27.5788 24.0275 27.5788 21.9475V12.6951H34.6437V9.39584H27.5788V3.62209Z" fill="white"/>
<path d="M36.9658 14.6895C36.9564 14.7145 36.9466 14.7393 36.9375 14.7646L36.9658 14.7732V14.6895Z" fill="white"/>
<path d="M55.8374 16.147C55.8374 11.6352 51.5699 9.4668 46.6567 9.4668H40.7363V12.4047H46.5492C49.7768 12.4047 51.8926 14.0135 51.8926 15.7973C51.8926 18.0357 48.3781 18.1406 44.4333 18.8051C40.0582 19.5745 36.1133 20.9386 36.1133 24.6809C36.1133 28.2833 39.7712 30.032 43.8595 30.032C47.8043 30.032 50.6732 28.3882 52.072 26.1148H52.1795C52.1795 27.304 52.323 28.3533 52.7533 29.4374H56.5905C56.1242 27.8985 55.8374 26.5695 55.8374 23.3868V16.147ZM51.8926 21.8829C51.8926 24.1912 49.1312 27.234 44.6844 27.234C42.1023 27.234 40.3092 26.2547 40.3092 24.6109C40.3092 22.1977 44.1823 21.5331 46.5492 21.1484C49.3105 20.6937 50.4581 20.379 51.8926 19.7145V21.8829Z" fill="white"/>
<path d="M87.0011 12.6951V9.39585H79.9363V3.62208H76.099V9.39585H65.1618V7.35172C65.1618 5.23585 65.1618 3.11996 68.9272 3.11996C70.0748 3.11996 71.1148 3.33518 72.4776 3.90895V0.753107C71.2224 0.215192 69.6087 0 68.2101 0C63.0818 0 61.3245 2.61793 61.3245 7.06481V9.39583H57.7383V12.6593H61.3245V29.2992H65.1618V12.6593H70.5831L72.418 12.6951H76.099V23.1668C76.099 25.3544 76.099 29.9089 82.5899 29.9089C84.1322 29.9089 85.7817 29.622 87.0011 29.0482V25.713C85.6743 26.3227 84.3472 26.6096 83.3073 26.6096C79.9363 26.6096 79.9363 24.0275 79.9363 21.9475V12.6951H87.0011Z" fill="white"/>
</svg>
