<svg width="28" height="28" viewBox="0 0 28 28" fill="none" xmlns="http://www.w3.org/2000/svg">
<path d="M14.2866 0C6.71308 0 0.572266 6.14082 0.572266 13.7143C0.572266 21.2878 6.71308 27.4286 14.2866 27.4286C21.86 27.4286 28.0008 21.2878 28.0008 13.7143C28.0008 6.14082 21.86 0 14.2866 0ZM20.8774 10.3378C20.8866 10.4816 20.8866 10.6316 20.8866 10.7786C20.8866 15.2724 17.4641 20.449 11.21 20.449C9.28145 20.449 7.49369 19.8888 5.98757 18.9245C6.26308 18.9551 6.52635 18.9673 6.80798 18.9673C8.39982 18.9673 9.86308 18.4286 11.0294 17.5163C9.53553 17.4857 8.28043 16.5061 7.85186 15.1592C8.37533 15.2357 8.84676 15.2357 9.38553 15.098C8.61633 14.9417 7.92494 14.5239 7.42885 13.9157C6.93275 13.3074 6.66253 12.5461 6.6641 11.7612V11.7184C7.1141 11.9724 7.64369 12.1286 8.19778 12.15C7.73199 11.8396 7.34999 11.419 7.08567 10.9256C6.82134 10.4322 6.68285 9.88118 6.68247 9.32143C6.68247 8.68776 6.84778 8.10918 7.14471 7.60714C7.9985 8.65817 9.06389 9.51778 10.2716 10.1301C11.4794 10.7424 12.8025 11.0937 14.1549 11.1612C13.6743 8.85 15.4008 6.97959 17.4763 6.97959C18.4559 6.97959 19.3376 7.3898 19.959 8.05102C20.7274 7.90714 21.4621 7.61939 22.1172 7.23367C21.8631 8.02041 21.3304 8.68469 20.6233 9.10408C21.309 9.03061 21.9702 8.84082 22.5825 8.57449C22.1202 9.25408 21.5417 9.85714 20.8774 10.3378Z" fill="white"/>
</svg>
